<svg width="323" height="284" viewBox="0 0 323 284" fill="none" xmlns="http://www.w3.org/2000/svg">
<path d="M242.76 12.5414C248.009 14.9871 252.929 17.6971 257.389 20.5848C272.981 30.6759 285.523 45.3654 300.845 55.4869C315.313 65.0428 332.981 67.3659 349.537 68.9623C378.395 71.7469 438.584 98.4517 427.716 147.945C423.762 165.957 409.819 178.19 402.68 194.502C395.087 211.852 395.884 233.491 383.794 248.534C378.475 255.146 371.133 259.514 363.595 262.825C313.43 284.836 257.096 283.814 203.904 281.388C161.92 279.472 94.4883 289.596 57.6112 264.877C39.3027 252.606 48.8234 219.058 36.1546 201.04C25.5091 185.898 11.0205 175.956 3.90318 157.002C-8.20869 124.753 9.05563 82.7858 39.2838 71.337C58.1732 64.1834 78.185 60.906 96.8573 53.0495C116.148 44.9306 123.581 32.7679 138.293 18.3741C164.889 -7.64721 210.155 -2.6537 242.76 12.5414Z" fill="#FAFAFA"/>
<path d="M342.384 142.667C341.258 139.322 339.103 136.5 337.572 133.344C336.046 130.185 335.193 126.247 336.792 123.135C338.293 120.22 341.643 118.619 342.607 115.455C343.652 112.026 341.453 108.55 339.625 105.521C337.799 102.494 336.309 98.2868 338.468 95.5215C339.197 94.5893 340.239 93.998 341.014 93.1081C343.768 89.9302 342.018 84.8261 340.148 80.9776C340.148 80.9776 339.331 78.3579 336.721 78.076C334.213 77.2525 332.511 79.3315 332.511 79.3315C329.403 82.1051 325.956 86.089 327.349 90.1632C327.746 91.3036 328.496 92.28 328.829 93.4444C329.825 96.8885 326.937 100.15 324.163 102.186C321.389 104.224 318.107 106.513 317.839 110.111C317.588 113.426 320.103 116.297 320.435 119.604C320.797 123.144 318.589 126.419 316.047 128.699C313.497 130.978 310.493 132.682 308.248 135.304C306.006 137.925 304.664 141.95 306.273 145.064C307.389 147.226 309.728 148.588 310.354 150.964C311.425 155.026 307.873 157.14 306.738 160.323C305.549 163.656 307.489 167.43 309.629 169.937C315.358 176.638 321.682 177.958 328.909 172.655C335.101 168.11 331.083 161.255 334.806 156.24C336.236 154.31 338.885 154.022 340.691 152.493C343.294 150.287 343.51 146.018 342.384 142.667Z" fill="#D3D3D3"/>
<path d="M335.527 85.0251C334.323 88.7118 333.323 92.4717 332.532 96.2851C332.13 98.1919 331.742 100.092 331.645 102.002C331.553 103.886 331.766 105.842 331.942 107.775C332.354 111.653 332.526 115.722 331.739 119.673C331.351 121.646 330.743 123.609 329.721 125.393C329.463 125.841 329.18 126.27 328.867 126.682C328.573 127.075 328.162 127.509 327.92 127.816C327.344 128.448 326.889 129.239 326.449 130.023C324.835 133.279 324.046 137.125 324.234 140.77C324.303 141.673 324.399 142.58 324.633 143.424C324.725 143.856 324.87 144.258 325.027 144.65L325.282 145.32C325.378 145.57 325.479 145.818 325.559 146.066C326.186 148.077 326.496 150.162 326.446 152.257C326.365 154.341 325.996 156.464 325.054 158.376C324.611 159.34 323.967 160.209 323.259 160.979C322.867 161.327 322.508 161.715 322.059 161.98L320.945 162.731C319.661 163.677 319.025 165.487 318.87 167.343C318.679 169.21 318.873 171.167 319.25 173.064V173.069C319.254 173.084 319.255 173.099 319.252 173.115C319.25 173.13 319.245 173.144 319.237 173.157C319.229 173.17 319.219 173.181 319.207 173.19C319.195 173.198 319.181 173.204 319.167 173.207C319.143 173.214 319.116 173.211 319.094 173.198C319.071 173.185 319.054 173.164 319.045 173.138C318.334 171.28 317.94 169.301 317.883 167.293C317.868 166.246 318.012 165.203 318.308 164.206C318.6 163.173 319.224 162.22 319.994 161.465L321.117 160.533C321.459 160.293 321.724 159.959 322.022 159.666C322.545 159.005 323.019 158.293 323.332 157.468C324.023 155.87 324.283 154.037 324.269 152.222C324.293 150.404 323.984 148.568 323.434 146.881L322.955 145.572C322.76 145.069 322.605 144.55 322.492 144.019C322.234 142.974 322.143 141.92 322.083 140.878C322.025 136.74 323.014 132.664 324.947 129.083C325.469 128.209 326.007 127.336 326.724 126.581C327.088 126.161 327.342 125.917 327.632 125.562C327.907 125.224 328.162 124.864 328.392 124.481C329.329 122.957 329.947 121.173 330.364 119.338C330.77 117.492 330.991 115.586 331.047 113.669C331.116 111.756 330.991 109.823 330.862 107.868C330.76 105.909 330.607 103.949 330.778 101.924C330.962 99.9255 331.428 98.004 331.905 96.1147C332.838 92.3205 333.981 88.5892 335.326 84.9404C335.337 84.9117 335.358 84.8888 335.385 84.8767C335.411 84.8647 335.441 84.8644 335.468 84.8759C335.493 84.8883 335.514 84.9105 335.525 84.9381C335.536 84.9658 335.537 84.9968 335.527 85.0251Z" fill="#F2F2F2"/>
<path d="M259.366 142.667C260.493 139.322 262.651 136.5 264.176 133.344C265.706 130.185 266.563 126.247 264.961 123.135C263.459 120.22 260.109 118.619 259.147 115.455C258.097 112.026 260.301 108.55 262.126 105.521C263.952 102.494 265.441 98.2868 263.285 95.5215C262.556 94.5893 261.513 93.998 260.739 93.1081C257.985 89.9302 259.735 84.8261 261.601 80.9776C261.601 80.9776 262.419 78.3579 265.029 78.076C267.54 77.2525 269.24 79.3315 269.24 79.3315C272.345 82.1051 275.795 86.089 274.399 90.1632C274.007 91.3036 273.254 92.28 272.92 93.4444C271.925 96.8885 274.815 100.15 277.586 102.186C280.361 104.224 283.642 106.513 283.912 110.111C284.162 113.426 281.648 116.297 281.313 119.604C280.953 123.144 283.161 126.419 285.707 128.699C288.253 130.978 291.258 132.682 293.501 135.304C295.744 137.925 297.084 141.95 295.476 145.064C294.36 147.226 292.021 148.588 291.397 150.964C290.321 155.026 293.879 157.14 295.011 160.323C296.2 163.656 294.259 167.43 292.121 169.937C286.39 176.638 280.067 177.958 272.837 172.655C266.649 168.11 270.667 161.255 266.946 156.24C265.511 154.31 262.864 154.022 261.057 152.493C258.456 150.287 258.242 146.018 259.366 142.667Z" fill="#D3D3D3"/>
<path d="M266.224 85.0251C267.428 88.7119 268.427 92.4718 269.217 96.2851C269.623 98.1919 270.009 100.092 270.111 102.002C270.2 103.886 269.984 105.842 269.807 107.775C269.396 111.653 269.227 115.722 270.01 119.673C270.401 121.646 271.011 123.609 272.033 125.393C272.287 125.841 272.573 126.27 272.887 126.682C273.181 127.075 273.592 127.509 273.832 127.816C274.407 128.448 274.862 129.239 275.302 130.023C276.918 133.279 277.711 137.125 277.52 140.77C277.448 141.673 277.351 142.58 277.121 143.424C277.025 143.844 276.893 144.254 276.728 144.65L276.47 145.32C276.374 145.57 276.275 145.818 276.196 146.066C275.568 148.077 275.253 150.162 275.307 152.257C275.388 154.341 275.756 156.464 276.7 158.376C277.14 159.34 277.786 160.209 278.495 160.979C278.889 161.327 279.245 161.715 279.692 161.98L280.808 162.731C282.09 163.677 282.725 165.487 282.88 167.343C283.075 169.21 282.877 171.167 282.502 173.064L282.5 173.069C282.497 173.084 282.497 173.099 282.499 173.114C282.502 173.13 282.507 173.144 282.515 173.157C282.523 173.17 282.533 173.181 282.545 173.189C282.557 173.198 282.57 173.204 282.584 173.207C282.609 173.214 282.635 173.211 282.658 173.198C282.681 173.185 282.698 173.164 282.706 173.138C283.418 171.28 283.813 169.301 283.872 167.293C283.89 166.245 283.744 165.201 283.439 164.206C283.152 163.173 282.533 162.22 281.758 161.465L280.634 160.533C280.292 160.293 280.025 159.959 279.736 159.666C279.207 159.005 278.734 158.293 278.42 157.468C277.732 155.87 277.473 154.037 277.483 152.222C277.458 150.404 277.767 148.568 278.32 146.881L278.801 145.572C278.991 145.059 279.154 144.544 279.261 144.019C279.521 142.974 279.612 141.92 279.67 140.878C279.729 136.74 278.74 132.663 276.807 129.083C276.283 128.209 275.746 127.336 275.03 126.581C274.661 126.161 274.413 125.917 274.122 125.562C273.846 125.22 273.592 124.859 273.362 124.481C272.426 122.957 271.809 121.173 271.389 119.338C270.988 117.477 270.759 115.578 270.706 113.669C270.639 111.756 270.765 109.823 270.89 107.868C270.991 105.909 271.143 103.949 270.976 101.924C270.792 99.9255 270.323 98.004 269.85 96.1147C268.918 92.3201 267.774 88.5887 266.427 84.9404C266.416 84.9119 266.395 84.8892 266.369 84.8772C266.343 84.8651 266.313 84.8646 266.286 84.8759C266.261 84.8881 266.24 84.9101 266.229 84.9377C266.217 84.9653 266.216 84.9964 266.224 85.0251Z" fill="#F2F2F2"/>
<path d="M323.617 130.193C321.346 126.168 317.869 123.118 315.12 119.452C312.372 115.788 310.31 110.924 311.629 106.44C312.866 102.247 316.822 99.231 317.304 94.8601C317.824 90.1255 314.13 86.2392 311.031 82.8236C307.93 79.4089 304.978 74.3767 307.103 70.1883C307.821 68.7762 309.03 67.7224 309.815 66.3517C312.612 61.4642 309.111 55.3377 305.755 50.8757C305.755 50.8757 304.057 47.7023 300.608 48.0671C297.156 47.7023 295.459 50.8757 295.459 50.8757C292.103 55.3377 288.6 61.4642 291.398 66.3517C292.182 67.7215 293.391 68.7753 294.109 70.1883C296.235 74.3767 293.281 79.4089 290.18 82.8236C287.083 86.2392 283.385 90.1255 283.905 94.8601C284.39 99.231 288.342 102.246 289.577 106.44C290.9 110.924 288.841 115.788 286.092 119.452C283.345 123.118 279.866 126.169 277.596 130.193C275.326 134.216 274.562 139.807 277.404 143.393C279.374 145.881 282.733 146.993 284.126 149.899C286.496 154.862 282.403 158.594 281.707 163.035C280.975 167.691 284.402 172.038 287.784 174.686C296.84 181.768 305.351 181.707 313.431 172.81C320.352 165.196 313.479 157.439 317.086 149.896C318.476 146.993 321.839 145.881 323.807 143.393C326.647 139.806 325.886 134.215 323.617 130.193Z" fill="#F2F2F2"/>
<path d="M265.904 173.527H335.312V183.544H265.904V173.527Z" fill="#F7F7F7"/>
<path d="M320.506 279.715H280.711L272.509 183.544H328.702L320.506 279.715ZM298.418 171.586C297.063 169.403 298.418 171.586 297.84 168.956C297.565 167.603 297.499 166.21 297.646 164.835C297.77 163.417 298.345 162.003 299.167 160.812L300.394 159.289C300.781 158.887 301.04 158.376 301.35 157.914C301.871 156.912 302.311 155.854 302.517 154.704C303.026 152.436 302.916 149.986 302.464 147.641C302.053 145.276 301.206 142.984 300.079 140.954L299.142 139.39C298.767 138.794 298.44 138.164 298.166 137.507C297.578 136.225 297.207 134.886 296.875 133.549C295.797 128.204 296.091 122.645 297.726 117.466C298.189 116.189 298.671 114.907 299.418 113.731C299.794 113.085 300.058 112.695 300.346 112.155C300.619 111.64 300.865 111.102 301.072 110.542C301.919 108.304 302.286 105.82 302.38 103.323C302.456 100.821 302.28 98.2868 301.893 95.7877C301.514 93.2905 300.877 90.8209 300.241 88.3237C299.638 85.8118 298.965 83.3127 298.691 80.6451C298.441 78.0005 298.586 75.3808 298.738 72.8016C299.028 67.624 299.605 62.4697 300.467 57.366C300.47 57.3459 300.477 57.3267 300.487 57.3095C300.497 57.2922 300.51 57.2773 300.525 57.2656C300.541 57.2539 300.558 57.2457 300.577 57.2414C300.595 57.2371 300.614 57.2369 300.633 57.2407C300.669 57.2486 300.701 57.2707 300.722 57.3026C300.743 57.3346 300.753 57.374 300.748 57.413C300.079 62.5265 299.694 67.6784 299.597 72.8412C299.538 75.4222 299.501 77.9986 299.83 80.4968C300.172 82.9645 300.927 85.4387 301.622 87.8954C303.096 92.8051 304.305 98.0316 304.244 103.369C304.215 106.037 303.907 108.75 303.013 111.351C302.791 112.004 302.527 112.64 302.224 113.254C301.935 113.849 301.509 114.523 301.267 114.989C300.676 115.971 300.284 117.125 299.898 118.259C298.594 122.934 298.506 128.138 299.634 132.807C299.947 133.962 300.289 135.107 300.794 136.136C301.021 136.669 301.303 137.153 301.6 137.62L302.099 138.414C302.286 138.706 302.473 138.999 302.636 139.303C303.936 141.733 304.849 144.347 305.286 147.078C305.69 149.803 305.725 152.654 304.968 155.396C304.631 156.772 304.007 158.073 303.273 159.268C302.85 159.833 302.482 160.436 301.964 160.905L300.698 162.189C299.266 163.776 298.886 166.296 299.135 168.743C299.337 171.219 299.957 167.645 300.902 169.999" fill="#D3D3D3"/>
<path d="M164.299 153.082C163.964 152.963 160.117 153.474 158.585 154.236C157.049 154.996 153.242 155.416 153.577 154.312C153.921 153.218 160.188 149.416 162.76 149.039C165.335 148.67 168.511 148.701 168.511 148.701L171.179 152.423" fill="#F1B99E"/>
<path d="M190.162 111.232C188.625 119.153 185.725 130.539 184.972 131.938C184.635 132.563 183.358 133.656 181.609 135.229C179.067 137.506 164.924 148.34 164.924 148.34C164.864 151.064 168.314 154.837 168.314 154.837C170.622 153.317 175.403 150.293 180.53 147.324C186.435 143.903 190.698 140.505 191.805 138.709C193.875 135.35 201.067 114.923 202.523 109.781C203.082 107.801 203.714 104.492 204.287 101.17C205.042 96.7908 205.674 92.3933 205.874 90.9913L205.941 90.5335V90.5308C205.941 90.5308 202.881 86.2327 197.28 90.6348C197.28 90.6348 193.318 94.9651 190.162 111.232Z" fill="#F7F7F7"/>
<path d="M217.99 66.1472C216.825 70.2261 218.308 74.3297 221.301 75.3089C224.294 76.2881 227.655 73.7734 228.815 69.6918C229.976 65.613 228.495 61.5084 225.502 60.5283C222.511 59.5482 219.147 62.0638 217.99 66.1472Z" fill="#FFBE55"/>
<path d="M197.358 147.751C197.358 147.751 192.746 170.796 191.687 176.599C190.626 182.4 187.659 210.501 187.339 215.28C187.02 220.057 182.526 238.061 182.737 239.771C182.949 241.475 176.069 275.756 176.069 275.756C176.069 275.756 178.418 277.788 180.896 275.941C182.171 274.989 195.99 243.846 195.99 235.312C195.99 223.519 204.114 208.122 205.163 205.483C214.9 180.969 212.984 173.474 214.256 171.881C215.528 170.291 215.638 172.868 216.378 176.394C217.12 179.92 218.71 210.41 219.663 214.278C220.615 218.146 219.876 231.23 220.404 237.83C220.935 244.43 223.262 274.275 223.262 274.275C223.262 274.275 225.064 277.311 227.594 274.357C228.133 273.724 231.959 241.107 232.061 233.256C232.171 225.408 232.281 214.581 232.485 211.186C234.451 178.655 239.277 174.01 231.679 150.984C217.447 107.876 197.358 147.751 197.358 147.751Z" fill="#EEBEA7"/>
<path d="M228.349 141.312C228.349 141.312 241.494 161.061 235.836 203.078C235.836 203.078 204.658 207.631 187.947 197.811C187.947 197.811 194.857 154.491 197.358 147.751C199.862 141.009 228.349 141.312 228.349 141.312Z" fill="#0B4870"/>
<path d="M210.703 85.1817C210.703 85.1817 205.022 87.725 203.341 88.0852C201.66 88.4462 195.973 97.4596 194.83 100.78C193.687 104.101 194.83 109.084 197.184 114.934C199.536 120.785 197.321 122.735 198.396 128.583C199.472 134.434 195.998 146.906 195.794 150.157C195.594 153.407 227.42 153.933 233.673 148.011C233.673 148.011 227.388 137.899 226.582 136.454C225.771 135.01 226.446 127.137 227.183 125.117C227.926 123.096 232.851 105.9 232.851 105.9C232.851 105.9 236.879 92.6945 233.243 89.6585C230.079 87.0203 221.461 86.0835 219.917 85.505C218.367 84.9293 213.868 84.6788 210.703 85.1817Z" fill="#0E538C"/>
<path d="M208.394 79.1814C208.394 79.1814 208.525 80.4848 208.683 82.2866C208.75 83.087 208.827 83.9851 208.895 84.9072C209.095 87.5361 209.253 90.3779 209.162 91.8259C209.162 91.8259 214.19 97.2431 219.918 85.5078C219.918 85.5078 217.506 80.669 219.321 74.0792C221.134 67.4875 208.394 79.1814 208.394 79.1814Z" fill="#EEBEA7"/>
<path d="M206.675 49.2148C206.675 49.2148 195.393 53.0191 201.514 73.9272C207.644 94.8344 223.056 71.5046 221.445 58.7662C219.831 46.0295 206.675 49.2148 206.675 49.2148Z" fill="#EEBEA7"/>
<path d="M200.361 61.4126C200.361 61.4126 205.975 67.3189 215.356 68.0577C215.356 68.0577 218.961 72.5989 219.242 74.3786C219.242 74.3786 229.058 56.7737 217.319 49.8744C204.884 42.5633 196.581 57.6286 200.361 61.4126Z" fill="#FFBE55"/>
<path d="M215.427 67.937C215.503 66.4181 216.376 62.9555 218.48 63.9227C220.586 64.8936 218.351 71.9458 216.952 71.512C216.952 71.512 215.26 71.5387 215.427 67.937Z" fill="#EEBEA7"/>
<path d="M208.683 82.2866C208.75 83.087 208.827 83.9851 208.895 84.9072L208.897 84.9072C215.423 81.452 216.419 76.4622 216.452 76.3102C211.801 82.7582 208.683 82.2866 208.683 82.2866Z" fill="#A77860"/>
<path d="M220.747 85.7279L208.394 102.524L207.82 86.4289C207.82 86.4289 211.67 83.123 220.747 85.7279Z" fill="#F7F7F7"/>
<path d="M282.371 163.246H89.891V156.87H282.371V163.246Z" fill="#0E538C"/>
<path d="M249.909 163.246H85.9818V156.87H249.909V163.246Z" fill="#2A94F4"/>
<path d="M126.379 140.964L182.459 142.689L184.178 140.964L174.555 100.799H116.752L115.035 102.524L126.379 140.964Z" fill="#F2F2F2"/>
<path d="M124.661 142.689H182.459L172.831 102.524L115.035 102.524L124.661 142.689Z" fill="#D3D3D3"/>
<path d="M149.469 132.26H152.096V154.027H149.469V132.26Z" fill="#F2F2F2"/>
<path d="M161.892 156.871H153.556V154.028H159.246C159.594 154.028 159.938 154.101 160.259 154.244C160.58 154.387 160.872 154.597 161.118 154.861C161.364 155.125 161.559 155.438 161.691 155.783C161.824 156.128 161.892 156.498 161.892 156.871ZM143.078 132.26H149.791V154.027H143.078V132.26Z" fill="#F7F7F7"/>
<path d="M154.583 154.028V156.871H133.28C133.279 156.498 133.347 156.128 133.48 155.783C133.613 155.438 133.808 155.125 134.054 154.861C134.299 154.597 134.591 154.387 134.912 154.244C135.234 154.101 135.578 154.028 135.926 154.028H154.583Z" fill="#D3D3D3"/>
<path d="M89.8901 163.247L249.909 163.246L249.909 220.247H89.8901V163.247Z" fill="#0E538C"/>
<path d="M249.91 163.247H277.108V220.247H249.909L249.91 163.247Z" fill="#0B4870"/>
<path d="M282.371 223.438H89.891V217.06H282.371V223.438Z" fill="#0E538C"/>
<path d="M249.909 223.438H85.9818V217.06H249.909V223.438Z" fill="#2A94F4"/>
<path d="M89.8901 223.436H249.909V280.435H89.8901V223.436Z" fill="#0E538C"/>
<path d="M249.909 223.436H277.108V280.435H249.909V223.436Z" fill="#0B4870"/>
<path d="M282.371 283.625H89.891V277.248H282.371V283.625Z" fill="#0E538C"/>
<path d="M249.909 283.625H85.9818V277.248H249.909V283.625Z" fill="#2A94F4"/>
<path d="M193.243 153.082C192.91 152.963 189.06 153.474 187.532 154.236C185.997 154.996 182.191 155.416 182.526 154.312C182.868 153.218 189.134 149.416 191.707 149.039C194.282 148.67 197.459 148.701 197.459 148.701L200.127 152.423" fill="#F1B99E"/>
<path d="M220.147 111.532C218.609 119.454 215.707 130.837 214.957 132.238C214.617 132.863 213.341 133.956 211.593 135.528C209.054 137.807 194.908 148.639 194.908 148.639C194.846 151.361 198.297 155.136 198.297 155.136C200.604 153.614 205.39 150.591 210.514 147.623C216.42 144.202 220.682 140.804 221.791 139.007C223.86 135.648 231.05 115.22 232.508 110.079C233.064 108.1 233.703 104.79 234.275 101.467C234.848 98.0819 235.376 94.6887 235.858 91.2879C235.898 91.0125 235.923 90.8513 235.925 90.8311V90.8265C235.23 88.6259 232.865 86.5284 227.266 90.9305C227.266 90.9333 223.302 95.2645 220.147 111.532Z" fill="#F7F7F7"/>
<path fill-rule="evenodd" clip-rule="evenodd" d="M208.414 102.73L207.82 86.4289C204.012 89.7662 202.593 88.1469 199.944 87.514C201.111 91.1839 204.114 93.6728 206.368 93.9519L208.414 102.73Z" fill="#2A94F4"/>
<path fill-rule="evenodd" clip-rule="evenodd" d="M208.394 102.524L220.747 85.7279C221.846 92.1953 224.366 89.2062 227.075 90.6339C223.658 93.5355 218.064 96.4777 215.931 94.99L208.394 102.524Z" fill="#2A94F4"/>
<path d="M195.175 104.999L195.675 100.263L204.964 101.394L204.463 106.13L195.175 104.999Z" fill="#F7F7F7"/>
<path d="M107.064 178.405H227.928V200.88H107.064V178.405Z" fill="#2A94F4"/>
<path d="M159.246 154.028L208.683 154.028V156.871H159.247L159.246 154.028Z" fill="#F7F7F7"/>
</svg>
